<svg class="icon icon-account" width="30" height="30" viewBox="0 0 30 30" fill="none" xmlns="http://www.w3.org/2000/svg">
<path d="M16.5 16.5C18.0625 16.5417 19.3542 17.0833 20.375 18.125C21.4167 19.1458 21.9583 20.4375 22 22C22 22.2917 21.9062 22.5312 21.7188 22.7188C21.5312 22.9062 21.2917 23 21 23H9C8.70833 23 8.46875 22.9062 8.28125 22.7188C8.09375 22.5312 8 22.2917 8 22C8.04167 20.4375 8.58333 19.1458 9.625 18.125C10.6458 17.0833 11.9375 16.5417 13.5 16.5H16.5ZM9.53125 21.5H20.4688C20.3229 20.5 19.8854 19.6667 19.1562 19C18.4271 18.3542 17.5417 18.0208 16.5 18H13.5C12.4583 18.0208 11.5729 18.3542 10.8438 19C10.1146 19.6667 9.67708 20.5 9.53125 21.5ZM15 15C13.875 14.9792 12.9271 14.5938 12.1562 13.8438C11.4062 13.0729 11.0208 12.125 11 11C11.0208 9.875 11.4062 8.92708 12.1562 8.15625C12.9271 7.40625 13.875 7.02083 15 7C16.125 7.02083 17.0729 7.40625 17.8438 8.15625C18.5938 8.92708 18.9792 9.875 19 11C18.9792 12.125 18.5938 13.0729 17.8438 13.8438C17.0729 14.5938 16.125 14.9792 15 15ZM15 8.5C14.2917 8.52083 13.6979 8.76042 13.2188 9.21875C12.7604 9.69792 12.5208 10.2917 12.5 11C12.5208 11.7083 12.7604 12.3021 13.2188 12.7812C13.6979 13.2396 14.2917 13.4792 15 13.5C15.7083 13.4792 16.3021 13.2396 16.7812 12.7812C17.2396 12.3021 17.4792 11.7083 17.5 11C17.4792 10.2917 17.2396 9.69792 16.7812 9.21875C16.3021 8.76042 15.7083 8.52083 15 8.5Z" fill="#0E0804"/>
</svg>
