<svg  class="icon icon-cart-empty" width="30" height="30" viewBox="0 0 30 30" fill="none" xmlns="http://www.w3.org/2000/svg">
<path d="M11.5 12V10.5C11.5208 9.5 11.8646 8.67708 12.5312 8.03125C13.1771 7.36458 14 7.02083 15 7C16 7.02083 16.8229 7.36458 17.4688 8.03125C18.1354 8.67708 18.4792 9.5 18.5 10.5V12H20.5C20.9167 12.0208 21.2708 12.1667 21.5625 12.4375C21.8333 12.7292 21.9792 13.0833 22 13.5V20C21.9792 20.8542 21.6875 21.5625 21.125 22.125C20.5625 22.6875 19.8542 22.9792 19 23H11C10.1458 22.9792 9.4375 22.6875 8.875 22.125C8.3125 21.5625 8.02083 20.8542 8 20V13.5C8.02083 13.0833 8.16667 12.7292 8.4375 12.4375C8.72917 12.1667 9.08333 12.0208 9.5 12H11.5ZM13 12H17V10.5C16.9792 9.9375 16.7812 9.46875 16.4062 9.09375C16.0312 8.71875 15.5625 8.52083 15 8.5C14.4375 8.52083 13.9688 8.71875 13.5938 9.09375C13.2188 9.46875 13.0208 9.9375 13 10.5V12ZM9.5 13.5V20C9.52083 20.4167 9.66667 20.7708 9.9375 21.0625C10.2292 21.3333 10.5833 21.4792 11 21.5H19C19.4167 21.4792 19.7708 21.3333 20.0625 21.0625C20.3333 20.7708 20.4792 20.4167 20.5 20V13.5H18.5V15.25C18.4583 15.7083 18.2083 15.9583 17.75 16C17.2917 15.9583 17.0417 15.7083 17 15.25V13.5H13V15.25C12.9583 15.7083 12.7083 15.9583 12.25 16C11.7917 15.9583 11.5417 15.7083 11.5 15.25V13.5H9.5Z" fill="#0E0804"/>
</svg>
