<svg width="33" height="33" viewBox="0 0 33 33" fill="none" xmlns="http://www.w3.org/2000/svg">
<circle cx="16.5" cy="16.5" r="16.5" fill="white"/>
<g clip-path="url(#clip0_17885_273)">
<path d="M17 17C19.206 17 21 15.206 21 13C21 10.794 19.206 9 17 9C14.794 9 13 10.794 13 13C13 15.206 14.794 17 17 17ZM17 10.3333C18.4707 10.3333 19.6667 11.5293 19.6667 13C19.6667 14.4707 18.4707 15.6667 17 15.6667C15.5293 15.6667 14.3333 14.4707 14.3333 13C14.3333 11.5293 15.5293 10.3333 17 10.3333ZM23 24.3333C23 24.7013 22.702 25 22.3333 25C21.9647 25 21.6667 24.7013 21.6667 24.3333C21.6667 22.3207 20.3833 20.6067 18.594 19.9533L17.5827 21.4707L18.3113 24.1307C18.4333 24.5747 18.0413 25.0007 17.5107 25.0007H16.4893C15.9587 25.0007 15.5673 24.5747 15.6887 24.1307L16.4173 21.4707L15.406 19.9533C13.6167 20.6067 12.3333 22.3207 12.3333 24.334C12.3333 24.702 12.0347 25.0007 11.6667 25.0007C11.2987 25.0007 11 24.702 11 24.334C11 21.026 13.692 18.334 17 18.334C20.308 18.334 23 21.0253 23 24.3333Z" fill="black"/>
</g>
<defs>
<clipPath id="clip0_17885_273">
<rect width="16" height="16" fill="white" transform="translate(9 9)"/>
</clipPath>
</defs>
</svg>
