<svg width="68" height="68" viewBox="0 0 68 68" fill="none" xmlns="http://www.w3.org/2000/svg">
    <g filter="url(#filter0_d_10435_4621)">
    <circle cx="34" cy="32" r="30" fill="#1B1F23"/>
    <circle cx="34" cy="32" r="29" stroke="white" stroke-width="2"/>
    </g>
    <path d="M21.089 36.0002C21.0083 36.0002 20.9423 35.9746 20.891 35.9232C20.8397 35.8719 20.814 35.8059 20.814 35.7252V28.5752C20.814 28.4946 20.8397 28.4286 20.891 28.3772C20.9423 28.3259 21.0083 28.3002 21.089 28.3002H22.31C22.3907 28.3002 22.4567 28.3259 22.508 28.3772C22.5593 28.4286 22.585 28.4946 22.585 28.5752V34.5262H25.995C26.0757 34.5262 26.1417 34.5519 26.193 34.6032C26.2443 34.6546 26.27 34.7206 26.27 34.8012V35.7252C26.27 35.8059 26.2443 35.8719 26.193 35.9232C26.1417 35.9746 26.0757 36.0002 25.995 36.0002H21.089ZM30.2633 36.1102C29.6547 36.1102 29.145 36.0112 28.7343 35.8132C28.3237 35.6079 28.0083 35.3182 27.7883 34.9442C27.5757 34.5702 27.4583 34.1339 27.4363 33.6352C27.429 33.4886 27.4253 33.3236 27.4253 33.1402C27.4253 32.9496 27.429 32.7846 27.4363 32.6452C27.4583 32.1392 27.583 31.7029 27.8103 31.3362C28.0377 30.9622 28.3567 30.6762 28.7673 30.4782C29.178 30.2729 29.6767 30.1702 30.2633 30.1702C30.8427 30.1702 31.3377 30.2729 31.7483 30.4782C32.159 30.6762 32.478 30.9622 32.7053 31.3362C32.9327 31.7029 33.0573 32.1392 33.0793 32.6452C33.094 32.7846 33.1013 32.9496 33.1013 33.1402C33.1013 33.3236 33.094 33.4886 33.0793 33.6352C33.0573 34.1339 32.9363 34.5702 32.7163 34.9442C32.5037 35.3182 32.192 35.6079 31.7813 35.8132C31.3707 36.0112 30.8647 36.1102 30.2633 36.1102ZM30.2633 34.9002C30.6227 34.9002 30.894 34.7902 31.0773 34.5702C31.2607 34.3429 31.3597 34.0129 31.3743 33.5802C31.3817 33.4702 31.3853 33.3236 31.3853 33.1402C31.3853 32.9569 31.3817 32.8102 31.3743 32.7002C31.3597 32.2749 31.2607 31.9486 31.0773 31.7212C30.894 31.4939 30.6227 31.3802 30.2633 31.3802C29.904 31.3802 29.629 31.4939 29.4383 31.7212C29.255 31.9486 29.156 32.2749 29.1413 32.7002C29.134 32.8102 29.1303 32.9569 29.1303 33.1402C29.1303 33.3236 29.134 33.4702 29.1413 33.5802C29.156 34.0129 29.255 34.3429 29.4383 34.5702C29.629 34.7902 29.904 34.9002 30.2633 34.9002ZM37.4858 38.4202C36.9431 38.4202 36.4921 38.3469 36.1328 38.2002C35.7735 38.0609 35.4875 37.8886 35.2748 37.6832C35.0695 37.4852 34.9228 37.2872 34.8348 37.0892C34.7468 36.8912 34.6991 36.7372 34.6918 36.6272C34.6845 36.5466 34.7101 36.4806 34.7688 36.4292C34.8275 36.3779 34.8935 36.3522 34.9668 36.3522H36.1438C36.2098 36.3522 36.2648 36.3669 36.3088 36.3962C36.3601 36.4329 36.4005 36.4916 36.4298 36.5722C36.4665 36.6602 36.5178 36.7519 36.5838 36.8472C36.6498 36.9499 36.7488 37.0342 36.8808 37.1002C37.0201 37.1662 37.2035 37.1992 37.4308 37.1992C37.6875 37.1992 37.9001 37.1626 38.0688 37.0892C38.2375 37.0159 38.3621 36.8912 38.4428 36.7152C38.5308 36.5392 38.5748 36.3009 38.5748 36.0002V35.2632C38.3988 35.4539 38.1751 35.6116 37.9038 35.7362C37.6398 35.8609 37.3135 35.9232 36.9248 35.9232C36.5435 35.9232 36.2061 35.8646 35.9128 35.7472C35.6268 35.6226 35.3885 35.4502 35.1978 35.2302C35.0071 35.0029 34.8605 34.7316 34.7578 34.4162C34.6551 34.1009 34.5965 33.7452 34.5818 33.3492C34.5745 33.1512 34.5745 32.9569 34.5818 32.7662C34.5965 32.3849 34.6551 32.0366 34.7578 31.7212C34.8605 31.4059 35.0071 31.1346 35.1978 30.9072C35.3885 30.6726 35.6268 30.4929 35.9128 30.3682C36.2061 30.2362 36.5435 30.1702 36.9248 30.1702C37.3281 30.1702 37.6728 30.2472 37.9588 30.4012C38.2448 30.5552 38.4795 30.7459 38.6628 30.9732V30.5552C38.6628 30.4819 38.6885 30.4196 38.7398 30.3682C38.7911 30.3096 38.8535 30.2802 38.9268 30.2802H40.0048C40.0781 30.2802 40.1405 30.3096 40.1918 30.3682C40.2505 30.4196 40.2798 30.4819 40.2798 30.5552L40.2908 35.8462C40.2908 36.3962 40.1845 36.8619 39.9718 37.2432C39.7591 37.6246 39.4438 37.9142 39.0258 38.1122C38.6151 38.3176 38.1018 38.4202 37.4858 38.4202ZM37.4308 34.6362C37.6948 34.6362 37.9075 34.5776 38.0688 34.4602C38.2375 34.3356 38.3621 34.1816 38.4428 33.9982C38.5235 33.8076 38.5675 33.6096 38.5748 33.4042C38.5821 33.3236 38.5858 33.2099 38.5858 33.0632C38.5858 32.9092 38.5821 32.7919 38.5748 32.7112C38.5675 32.5059 38.5235 32.3116 38.4428 32.1282C38.3621 31.9376 38.2375 31.7836 38.0688 31.6662C37.9075 31.5489 37.6948 31.4902 37.4308 31.4902C37.1521 31.4902 36.9321 31.5526 36.7708 31.6772C36.6095 31.7946 36.4921 31.9522 36.4188 32.1502C36.3455 32.3482 36.3015 32.5646 36.2868 32.7992C36.2795 32.9752 36.2795 33.1476 36.2868 33.3162C36.3015 33.5582 36.3455 33.7782 36.4188 33.9762C36.4921 34.1742 36.6095 34.3356 36.7708 34.4602C36.9321 34.5776 37.1521 34.6362 37.4308 34.6362ZM44.8448 36.1102C44.2361 36.1102 43.7265 36.0112 43.3158 35.8132C42.9051 35.6079 42.5898 35.3182 42.3698 34.9442C42.1571 34.5702 42.0398 34.1339 42.0178 33.6352C42.0105 33.4886 42.0068 33.3236 42.0068 33.1402C42.0068 32.9496 42.0105 32.7846 42.0178 32.6452C42.0398 32.1392 42.1645 31.7029 42.3918 31.3362C42.6191 30.9622 42.9381 30.6762 43.3488 30.4782C43.7595 30.2729 44.2581 30.1702 44.8448 30.1702C45.4241 30.1702 45.9191 30.2729 46.3298 30.4782C46.7405 30.6762 47.0595 30.9622 47.2868 31.3362C47.5141 31.7029 47.6388 32.1392 47.6608 32.6452C47.6755 32.7846 47.6828 32.9496 47.6828 33.1402C47.6828 33.3236 47.6755 33.4886 47.6608 33.6352C47.6388 34.1339 47.5178 34.5702 47.2978 34.9442C47.0851 35.3182 46.7735 35.6079 46.3628 35.8132C45.9521 36.0112 45.4461 36.1102 44.8448 36.1102ZM44.8448 34.9002C45.2041 34.9002 45.4755 34.7902 45.6588 34.5702C45.8421 34.3429 45.9411 34.0129 45.9558 33.5802C45.9631 33.4702 45.9668 33.3236 45.9668 33.1402C45.9668 32.9569 45.9631 32.8102 45.9558 32.7002C45.9411 32.2749 45.8421 31.9486 45.6588 31.7212C45.4755 31.4939 45.2041 31.3802 44.8448 31.3802C44.4855 31.3802 44.2105 31.4939 44.0198 31.7212C43.8365 31.9486 43.7375 32.2749 43.7228 32.7002C43.7155 32.8102 43.7118 32.9569 43.7118 33.1402C43.7118 33.3236 43.7155 33.4702 43.7228 33.5802C43.7375 34.0129 43.8365 34.3429 44.0198 34.5702C44.2105 34.7902 44.4855 34.9002 44.8448 34.9002Z" fill="white"/>
    <defs>
    <filter id="filter0_d_10435_4621" x="0" y="0" width="68" height="68" filterUnits="userSpaceOnUse" color-interpolation-filters="sRGB">
    <feFlood flood-opacity="0" result="BackgroundImageFix"/>
    <feColorMatrix in="SourceAlpha" type="matrix" values="0 0 0 0 0 0 0 0 0 0 0 0 0 0 0 0 0 0 127 0" result="hardAlpha"/>
    <feOffset dy="2"/>
    <feGaussianBlur stdDeviation="2"/>
    <feComposite in2="hardAlpha" operator="out"/>
    <feColorMatrix type="matrix" values="0 0 0 0 0 0 0 0 0 0 0 0 0 0 0 0 0 0 0.08 0"/>
    <feBlend mode="normal" in2="BackgroundImageFix" result="effect1_dropShadow_10435_4621"/>
    <feBlend mode="normal" in="SourceGraphic" in2="effect1_dropShadow_10435_4621" result="shape"/>
    </filter>
    </defs>
    </svg>